<?xml version="1.0" standalone="no"?>
<!DOCTYPE svg PUBLIC "-//W3C//DTD SVG 20010904//EN"
 "http://www.w3.org/TR/2001/REC-SVG-20010904/DTD/svg10.dtd">
<svg version="1.0" xmlns="http://www.w3.org/2000/svg"
 width="606.000000pt" height="606.000000pt" viewBox="0 0 606.000000 606.000000"
 preserveAspectRatio="xMidYMid meet">
<metadata>
Created by potrace 1.11, written by Peter Selinger 2001-2013
</metadata>
<g transform="translate(0.000000,606.000000) scale(0.100000,-0.100000)"
fill="#000000" stroke="none">
<path d="M3263 6043 c-21 -8 -15 -50 13 -82 18 -21 43 -36 82 -47 108 -30 120
-35 155 -68 78 -73 116 -192 124 -386 5 -135 -1 -218 -47 -655 -95 -895 -100
-956 -100 -1215 0 -288 25 -443 83 -522 28 -38 88 -76 139 -88 242 -54 491
-60 748 -15 244 42 295 49 313 42 22 -8 67 -107 67 -146 0 -37 -20 -58 -100
-110 -88 -57 -134 -96 -164 -140 -16 -22 -38 -43 -50 -47 -11 -4 -39 -26 -61
-50 -29 -31 -71 -58 -159 -99 -71 -33 -143 -76 -178 -105 -33 -28 -67 -50 -76
-50 -8 0 -34 -9 -56 -19 -23 -11 -59 -27 -81 -36 -53 -21 -141 -78 -128 -82 6
-2 51 14 99 36 49 22 118 47 154 56 104 27 213 65 240 84 26 18 85 37 158 50
23 4 52 17 65 28 12 11 33 30 47 42 14 12 66 50 115 83 50 34 105 74 123 90
19 16 61 42 94 58 33 16 84 52 112 79 29 26 67 56 84 65 36 18 52 52 72 143
15 73 13 79 -63 218 -79 144 -107 163 -216 143 -219 -39 -646 -51 -791 -24
-92 18 -121 29 -140 51 -37 44 2 245 58 298 16 15 73 45 128 66 54 21 135 55
179 76 44 20 157 73 250 117 304 143 505 217 756 277 104 25 274 28 364 6 75
-18 214 -30 249 -21 37 9 86 111 86 180 l0 49 -212 -6 c-301 -9 -458 -31 -793
-112 -101 -25 -228 -54 -282 -64 -96 -19 -150 -35 -398 -121 -146 -51 -222
-58 -257 -22 -20 20 -23 32 -22 100 1 42 13 133 27 202 14 69 28 152 31 185
26 266 42 386 71 535 51 256 66 357 80 511 21 242 20 265 -9 284 -94 62 -431
157 -618 174 -115 11 -343 14 -365 4z"/>
<path d="M3155 3684 c-460 -206 -1053 -368 -2145 -588 -947 -191 -964 -195
-968 -218 -2 -10 20 -33 55 -60 67 -50 228 -158 237 -158 3 0 30 -15 59 -34
66 -42 282 -147 363 -176 32 -12 68 -25 79 -30 55 -24 211 -63 315 -80 113
-17 194 -13 242 14 24 12 75 40 113 61 117 64 235 129 340 190 55 32 120 69
145 83 25 14 99 57 165 97 129 77 565 315 662 360 32 15 91 43 132 62 40 19
132 59 205 89 72 30 137 61 144 68 8 7 16 32 19 56 7 50 -16 270 -30 288 -15
19 -47 14 -132 -24z"/>
<path d="M5170 2394 c-196 -90 -419 -168 -655 -229 -349 -90 -572 -192 -880
-403 -551 -377 -824 -833 -740 -1237 42 -202 229 -409 430 -477 67 -22 83 -23
345 -23 267 0 279 1 394 28 119 29 364 105 423 132 17 8 35 15 39 15 9 0 38
13 255 119 135 65 350 188 409 233 14 10 70 52 125 92 123 90 276 248 332 344
84 141 117 284 89 390 -59 233 -288 333 -707 311 -577 -32 -1180 -226 -1255
-406 -39 -93 17 -204 129 -254 46 -21 66 -24 182 -23 172 1 207 14 520 196
248 144 342 181 503 199 116 12 178 3 248 -37 105 -60 117 -192 27 -290 -150
-162 -514 -378 -888 -527 -374 -150 -726 -170 -851 -49 -61 59 -74 99 -74 240
0 118 17 220 52 317 19 52 89 200 98 205 4 3 17 24 29 48 56 111 181 268 295
371 63 58 232 171 253 171 8 0 32 17 56 39 55 51 140 97 219 121 34 10 99 34
143 54 67 30 73 35 40 30 -22 -4 -42 -6 -45 -6 -22 0 -30 4 -30 17 0 21 145
88 306 141 121 39 141 48 137 64 -4 13 11 29 56 59 86 59 83 67 -9 25z"/>
</g>
</svg>
