<?xml version="1.0" standalone="no"?>
<!DOCTYPE svg PUBLIC "-//W3C//DTD SVG 20010904//EN"
 "http://www.w3.org/TR/2001/REC-SVG-20010904/DTD/svg10.dtd">
<svg version="1.0" xmlns="http://www.w3.org/2000/svg"
 width="700.000000pt" height="700.000000pt" viewBox="0 0 700.000000 700.000000"
 preserveAspectRatio="xMidYMid meet">
<metadata>
Created by potrace 1.14, written by Peter Selinger 2001-2017
</metadata>
<g transform="translate(0.000000,700.000000) scale(0.100000,-0.100000)"
fill="#000000" stroke="none">
<path d="M6010 6803 c-120 -16 -229 -39 -302 -63 -568 -190 -1009 -747 -1194
-1506 -35 -147 -37 -159 -58 -334 -16 -134 -12 -380 8 -492 31 -169 98 -337
181 -448 211 -286 575 -396 984 -299 498 117 939 550 1179 1154 53 134 118
348 136 450 3 17 8 41 11 55 12 64 15 78 20 115 19 143 22 198 19 345 -2 91
-5 179 -8 195 -33 216 -107 398 -214 525 -76 91 -119 128 -207 183 -123 76
-269 116 -435 121 -52 1 -106 1 -120 -1z m106 -523 c115 -37 187 -136 224
-308 15 -70 18 -117 15 -252 -2 -91 -6 -181 -9 -200 -4 -19 -11 -62 -16 -95
-50 -302 -145 -599 -262 -815 -49 -90 -161 -241 -214 -290 -142 -129 -279
-189 -425 -185 -224 5 -336 170 -344 510 -3 125 0 175 20 320 12 88 46 254 72
345 131 467 318 772 556 908 124 71 278 96 383 62z"/>
<path d="M3098 6485 c-2 -1 -32 -6 -68 -9 -36 -4 -83 -12 -105 -18 -22 -5 -50
-12 -63 -14 -34 -7 -168 -57 -237 -90 -227 -107 -462 -310 -629 -544 -25 -36
-50 -69 -54 -75 -21 -26 -112 -189 -151 -270 -113 -235 -197 -503 -237 -759
-3 -21 -7 -46 -9 -55 -8 -40 -18 -203 -19 -281 -1 -468 173 -814 490 -973 291
-146 700 -113 1049 86 465 264 813 789 959 1448 13 63 28 138 31 168 4 30 8
61 10 70 16 85 22 325 11 421 -11 88 -16 124 -22 150 -3 14 -7 36 -10 50 -10
48 -54 172 -81 223 -127 252 -334 410 -603 458 -58 10 -254 21 -262 14z m137
-539 c107 -53 173 -172 200 -361 12 -80 6 -314 -10 -405 -3 -14 -7 -40 -10
-57 -11 -72 -17 -101 -31 -168 -14 -64 -20 -92 -28 -120 -1 -5 -8 -30 -15 -55
-127 -466 -355 -811 -608 -918 -152 -64 -305 -62 -401 7 -39 29 -85 88 -109
141 -62 135 -75 395 -33 650 5 30 12 71 15 90 3 19 11 55 16 80 6 25 12 52 14
60 20 94 91 324 130 420 103 253 256 462 415 568 63 42 159 83 210 89 19 3 37
7 39 9 2 2 37 2 78 0 53 -3 88 -11 128 -30z"/>
<path d="M1018 6265 c-2 -2 -66 -6 -143 -10 -77 -3 -160 -8 -185 -10 -25 -2
-101 -6 -170 -10 -251 -12 -297 -22 -376 -76 -232 -159 -168 -457 101 -470 45
-3 308 11 327 17 25 7 31 -12 19 -64 -6 -26 -13 -56 -15 -67 -4 -20 -105 -487
-111 -515 -2 -8 -20 -91 -40 -185 -19 -93 -40 -186 -45 -205 -5 -19 -11 -48
-14 -65 -3 -16 -7 -39 -9 -50 -10 -40 -59 -271 -63 -295 -3 -14 -7 -33 -10
-42 -3 -10 -8 -30 -10 -45 -3 -16 -14 -66 -24 -113 -10 -47 -21 -96 -24 -110
-13 -64 -107 -502 -120 -560 -8 -36 -18 -81 -21 -100 -3 -19 -10 -51 -14 -70
-24 -111 26 -222 121 -271 86 -44 232 -38 335 15 111 56 175 150 207 301 9 44
19 91 22 105 3 14 7 35 10 48 2 13 16 76 30 140 33 153 33 152 39 185 3 16 14
66 25 112 11 46 22 96 25 112 2 15 7 37 9 48 16 71 68 314 72 335 3 14 16 77
30 140 15 63 28 124 30 135 4 23 22 110 29 140 2 11 20 94 40 185 19 90 38
176 40 190 3 14 18 84 34 156 16 71 32 143 35 159 2 17 7 40 10 53 8 31 14 59
40 187 3 11 18 83 36 160 54 246 57 293 22 343 -41 57 -67 67 -184 69 -58 1
-108 0 -110 -2z"/>
<path d="M6568 3305 c-2 -2 -64 -6 -138 -10 -74 -4 -155 -8 -180 -10 -157 -11
-230 -16 -270 -20 -25 -2 -79 -7 -120 -10 -87 -6 -177 -14 -240 -20 -43 -4
-71 -7 -210 -20 -36 -3 -81 -8 -100 -10 -19 -2 -60 -7 -90 -10 -30 -3 -71 -8
-90 -10 -19 -3 -60 -7 -90 -10 -30 -3 -72 -7 -92 -10 -21 -3 -57 -7 -80 -10
-24 -3 -59 -7 -78 -10 -19 -3 -55 -7 -80 -10 -42 -5 -91 -12 -150 -20 -14 -2
-63 -9 -110 -15 -47 -6 -96 -13 -110 -15 -14 -2 -47 -7 -75 -11 -27 -3 -57 -7
-65 -9 -8 -1 -33 -5 -55 -9 -22 -3 -98 -15 -170 -27 -71 -11 -143 -22 -160
-24 -36 -5 -103 -16 -130 -22 -19 -4 -84 -15 -155 -27 -19 -4 -73 -14 -120
-22 -47 -9 -96 -18 -110 -19 -14 -2 -38 -7 -55 -10 -77 -16 -273 -55 -296 -59
-37 -6 -240 -50 -449 -96 -96 -21 -186 -41 -200 -44 -577 -120 -1935 -521
-2109 -623 -124 -72 -192 -201 -187 -352 8 -202 163 -356 371 -367 66 -3 85 2
290 72 330 112 685 220 1035 314 259 70 819 208 920 226 14 3 43 10 65 16 22
5 51 12 65 15 14 2 97 20 185 38 88 19 176 37 195 40 19 3 64 12 100 20 36 8
76 17 90 19 14 3 50 9 80 15 30 6 69 13 85 16 76 13 92 16 115 20 51 10 75 15
110 20 20 3 47 8 60 10 14 3 84 14 155 26 72 12 139 23 150 25 11 2 40 7 65
10 25 3 52 7 60 9 8 2 35 7 60 10 25 3 70 10 100 15 65 11 107 17 175 25 48 6
74 10 133 19 15 3 50 7 77 11 28 3 64 7 80 10 17 2 50 7 75 9 25 3 86 10 135
17 50 6 108 12 129 14 22 2 60 6 85 10 45 6 81 9 191 20 30 3 73 7 95 9 22 3
69 7 105 11 36 4 81 8 100 10 19 2 73 6 120 10 47 3 103 7 125 10 66 6 203 16
279 21 112 6 244 14 336 20 97 7 156 24 220 65 118 75 182 198 176 339 -2 41
-11 94 -19 117 -41 109 -143 210 -244 239 -47 14 -157 26 -165 19z"/>
<path d="M5948 1744 c-2 -1 -46 -5 -98 -9 -52 -4 -108 -9 -125 -10 -16 -2 -57
-6 -90 -10 -33 -3 -76 -7 -95 -10 -46 -5 -124 -14 -180 -20 -25 -3 -56 -7 -70
-9 -14 -3 -50 -8 -80 -11 -59 -6 -99 -11 -158 -19 -20 -3 -54 -8 -76 -11 -89
-11 -374 -54 -396 -60 -8 -2 -37 -6 -65 -10 -27 -3 -57 -8 -65 -10 -8 -2 -31
-6 -50 -9 -144 -22 -536 -98 -760 -147 -74 -17 -146 -32 -160 -35 -14 -3 -108
-25 -210 -50 -102 -25 -192 -47 -202 -49 -46 -10 -349 -91 -463 -125 -401
-119 -614 -191 -675 -230 -171 -110 -229 -338 -130 -515 50 -90 152 -166 255
-190 82 -19 149 -10 310 45 270 92 819 248 1044 296 35 8 66 16 70 19 4 2 18
6 32 9 13 2 78 16 144 31 218 48 349 76 385 81 19 3 43 7 52 10 9 3 27 7 40 9
48 10 285 54 323 60 56 10 86 15 115 21 25 4 245 40 310 49 158 24 233 35 279
40 30 4 61 8 70 10 9 1 45 6 81 10 36 3 78 9 94 11 16 3 48 7 70 9 76 6 161
16 181 20 11 2 52 7 90 10 39 4 86 8 105 10 19 2 71 6 115 10 168 13 243 38
322 109 226 203 135 582 -159 662 -43 12 -171 18 -180 8z"/>
</g>
</svg>
